<svg id="Logo" xmlns="http://www.w3.org/2000/svg" xmlns:xlink="http://www.w3.org/1999/xlink" width="182.407" height="94.833" viewBox="0 0 182.407 94.833">
  <defs>
    <clipPath id="clip-path">
      <rect id="Rectangle_17" data-name="Rectangle 17" width="182.407" height="94.833" fill="#1A4469"/>
    </clipPath>
  </defs>
  <g id="Group_49" data-name="Group 49">
    <g id="Group_48" data-name="Group 48" clip-path="url(#clip-path)">
      <path id="Path_79" data-name="Path 79" d="M17.127,22.406a3.087,3.087,0,0,1-.987,2.124,3.351,3.351,0,0,1-1.973.823,3.719,3.719,0,0,1-2.112-.446,2.956,2.956,0,0,1-1.389-1.653,1.385,1.385,0,0,0-.93.364,1.631,1.631,0,0,0-.408,1.163l.094,3.4c-.025.66-.189,1.081-.5,1.263a.879.879,0,0,1-.949-.013,1.144,1.144,0,0,1-.534-.968l-.038-1.779a18.572,18.572,0,0,1,.063-2.671,3.621,3.621,0,0,1,.823-2.055,3.008,3.008,0,0,1,2.332-.817h.031a3.41,3.41,0,0,1,1.169-1.684,3.269,3.269,0,0,1,1.986-.666,3.359,3.359,0,0,1,1.923.553A3.215,3.215,0,0,1,16.844,20.7,3.626,3.626,0,0,1,17.127,22.406Zm-3.136-1.433a1.686,1.686,0,0,0-1.043.151,1.134,1.134,0,0,0-.547.522,1.058,1.058,0,0,0,.038.742,1.624,1.624,0,0,0,.5.723,1.579,1.579,0,0,0,.987.339,1.253,1.253,0,0,0,1.207-1.59C15.034,21.42,14.651,21.124,13.991,20.973Zm10.338,3.387a1.582,1.582,0,0,1-.333.314,3.607,3.607,0,0,1-1.307.559,6.624,6.624,0,0,1-2.143.013,4.145,4.145,0,0,1-1.747-.635c-.553-.446-.767-.867-.647-1.276.107-.27.258-.408.465-.421a1.968,1.968,0,0,1,.666.088l.226.063a1.388,1.388,0,0,0,.452.031.486.486,0,0,0,.352-.239,1.134,1.134,0,0,0,.094-.7,10.6,10.6,0,0,0-.522-1.879l-.013-.019c-.226-.685-.4-1.194-.5-1.527a1.909,1.909,0,0,1-.075-.251q-.226-.773-.471-1.546a1.436,1.436,0,0,0-.075-.233,4.143,4.143,0,0,1-.233-1.081.686.686,0,0,1,.484-.7,1.151,1.151,0,0,1,1.307.3A3.822,3.822,0,0,1,21.1,16.65a14.236,14.236,0,0,1,.427,1.59l.044.176a2.256,2.256,0,0,1,.05.22,21.284,21.284,0,0,1,.566,2.979,4.019,4.019,0,0,1-.094,1.527,1.48,1.48,0,0,0,.264-.063,1.379,1.379,0,0,0,.811-1.257l-.019-5.662a1.638,1.638,0,0,1,.3-1.094.79.79,0,0,1,.666-.308.992.992,0,0,1,.666.314,1.21,1.21,0,0,1,.308.811v1.276c0,.88.013,1.753.044,2.627.006.277.038.647.088,1.1a4.725,4.725,0,0,0,.283,1.181,1.847,1.847,0,0,0,.572.8,1.555,1.555,0,0,0,1.012.308V25.3a5.944,5.944,0,0,1-.874-.082,4.42,4.42,0,0,1-.993-.277A2.669,2.669,0,0,1,24.329,24.361Zm2.759.936V23.179h.534c.566,0,1.169-.025,1.81-.082a6.934,6.934,0,0,0,1.873-.434,4.22,4.22,0,0,0,1.647-1.156,8.25,8.25,0,0,1-.754-.471,5.462,5.462,0,0,0-1.364-.716,1.3,1.3,0,0,0-.949-.013.958.958,0,0,0-.4.484c-.327.566-.635.779-.918.635a1.035,1.035,0,0,1-.465-.943,1.765,1.765,0,0,1,.515-1.219,2.446,2.446,0,0,1,1.559-.729,4.811,4.811,0,0,1,2.551.547l.446.22a6.525,6.525,0,0,0,1.357.559,5.524,5.524,0,0,0,1.841.119,3.488,3.488,0,0,0,.66-.126,4.5,4.5,0,0,1,.685-.126,1.3,1.3,0,0,1,.666.107,1.162,1.162,0,0,1,.547.622.938.938,0,0,1-.1.874,1.716,1.716,0,0,1-.93.691,4.562,4.562,0,0,1-1.106.157,3.472,3.472,0,0,0-1.383.258c-.566.3-1.131.6-1.7.924-.434.245-.867.478-1.295.71a11.492,11.492,0,0,1-2.105.892,7.539,7.539,0,0,1-2.225.333ZM39.418,14.57a2.832,2.832,0,0,1,1-.635,8.147,8.147,0,0,1,1.156-.358l.145-.031c.452-.138.7-.314.742-.515a.462.462,0,0,0-.22-.5.706.706,0,0,0-.647-.082l-.484.2c-.321.126-.547.138-.679.031a.312.312,0,0,1-.107-.4.666.666,0,0,1,.452-.371,1.473,1.473,0,0,1,.383-.057,1.638,1.638,0,0,1,.226.025.168.168,0,0,0,.132.013c.038-.013.075-.063.113-.145a.514.514,0,0,0-.226-.622,1.176,1.176,0,0,0-1.024-.145,1.236,1.236,0,0,0-.892.962,1.28,1.28,0,0,0,.327,1.181,4.419,4.419,0,0,0-.622.358,1.731,1.731,0,0,0-.509.584.887.887,0,0,0-.113.459.278.278,0,0,0,.195.264.55.55,0,0,0,.346-.019A.8.8,0,0,0,39.418,14.57Zm.962,10.074c-.553-.446-.767-.867-.647-1.276a.544.544,0,0,1,.465-.415,1.8,1.8,0,0,1,.66.094c.082.013.157.031.233.05a1.091,1.091,0,0,0,.452.031.487.487,0,0,0,.352-.226,1.3,1.3,0,0,0,.094-.716,10.9,10.9,0,0,0-.522-1.879l-.013-.019c-.239-.685-.4-1.194-.5-1.527l-.082-.251c-.145-.515-.3-1.031-.459-1.546a1.131,1.131,0,0,0-.075-.22A3.878,3.878,0,0,1,40.1,15.65a.675.675,0,0,1,.49-.685,1.139,1.139,0,0,1,1.307.289,3.831,3.831,0,0,1,.786,1.427,14.236,14.236,0,0,1,.427,1.59l.044.176a2.253,2.253,0,0,1,.05.22,23.274,23.274,0,0,1,.566,2.979,4.019,4.019,0,0,1-.094,1.527,1.7,1.7,0,0,0,.258-.057,1.384,1.384,0,0,0,.817-1.263l-.019-5.662a1.64,1.64,0,0,1,.289-1.093.8.8,0,0,1,.666-.308,1,1,0,0,1,.666.314,1.148,1.148,0,0,1,.3.811c.006.427.013.855.013,1.276,0,.88.013,1.753.038,2.627a19.2,19.2,0,0,1-.044,2.244,5.349,5.349,0,0,1-.509,1.961,1.8,1.8,0,0,1-.572.685,3.721,3.721,0,0,1-1.32.559,6.544,6.544,0,0,1-2.13.019,4.031,4.031,0,0,1-1.747-.641Zm9.188-8.855c.019.987.006,2.25-.05,3.8s-.151,2.8-.277,3.758a4.642,4.642,0,0,1-.5,1.647c-.22.365-.427.459-.628.27s-.321-.729-.371-1.647l-.145-7.183a1.75,1.75,0,0,1,.5-1.408.851.851,0,0,1,.943-.132A.984.984,0,0,1,49.568,15.789Zm6.416,4.852L56,20.8q.066.405.094.83v.063a5.044,5.044,0,0,0,.119.767.957.957,0,0,0,.327.534,1.016,1.016,0,0,0,.635.189V25.3a2.6,2.6,0,0,1-1.577-.4,4.434,4.434,0,0,1-2.055,2.25,4.716,4.716,0,0,1-1.112.415,2.972,2.972,0,0,1-1.175.063,1.788,1.788,0,0,1-.534-.151.6.6,0,0,1-.364-.39.457.457,0,0,1,.214-.39,2.019,2.019,0,0,1,.509-.289,3.582,3.582,0,0,1,.44-.157,3.235,3.235,0,0,0,1.508-.936,4.449,4.449,0,0,0,.892-1.565,3.947,3.947,0,0,0,.151-1.672c-.025-.22-.05-.446-.075-.666-.038-.264-.063-.534-.082-.8a2.239,2.239,0,0,1,0-.5,1.092,1.092,0,0,1,.145-.484.712.712,0,0,1,.339-.251,1.612,1.612,0,0,1,.421-.082,1.222,1.222,0,0,1,.427.013.71.71,0,0,1,.371.195,1.313,1.313,0,0,1,.245.534,6.217,6.217,0,0,1,.119.616Zm4.481,5.731a4.726,4.726,0,0,1,1.722.415c.371.207.452.408.251.622a3.244,3.244,0,0,1-1.684.459c-.478.063-1.075.132-1.785.214a16.918,16.918,0,0,1-1.923.119h-.182a2.14,2.14,0,0,1-.754-.094c-.195-.069-.289-.264-.289-.584a.965.965,0,0,1,.616-.861,3.782,3.782,0,0,1,1.351-.308c.515-.031.987-.044,1.408-.031h.861A3.308,3.308,0,0,0,60.465,26.372ZM57.172,25.3V23.179A2,2,0,0,0,58.228,23a1.2,1.2,0,0,0,.446-.5,2.686,2.686,0,0,0,.157-1.326,6.913,6.913,0,0,1,.031-1.075.952.952,0,0,1,.465-.729.652.652,0,0,1,.735.082,1.7,1.7,0,0,1,.452,1.169c.013.119.031.239.05.364.044.245.069.478.088.7a4.8,4.8,0,0,0,.126.76.949.949,0,0,0,.321.534,1.1,1.1,0,0,0,.71.195L61.8,25.3a3.056,3.056,0,0,1-1.6-.371,1.784,1.784,0,0,1-.855-1.282,2.727,2.727,0,0,1-.855,1.181A2.1,2.1,0,0,1,57.172,25.3Zm6.693-4.845a.859.859,0,0,0-.371.515,3.38,3.38,0,0,0-.113.691,2.1,2.1,0,0,1-.277,1.056c-.176.3-.616.459-1.307.465V25.3a5.107,5.107,0,0,0,1.408-.151,2.917,2.917,0,0,0,1.232-.836,1.955,1.955,0,0,0,1.5.987,1.644,1.644,0,0,0,1.552-.735,2.438,2.438,0,0,0,1.879.729,1.955,1.955,0,0,0,1.6-.98,1.577,1.577,0,0,0,1,.823A4.6,4.6,0,0,0,73.2,25.3V23.179a.952.952,0,0,1-.911-.5,2.928,2.928,0,0,1-.3-1.288L71.947,21a1.877,1.877,0,0,0-.679-1.364.819.819,0,0,0-1,.019,1.555,1.555,0,0,0-.5,1.313,3.124,3.124,0,0,1-.207,1.244c-.239.578-.452.892-.635.93s-.289-.277-.321-.968l-.006-.66a1.58,1.58,0,0,0-.553-1.207.749.749,0,0,0-.842-.013,1.056,1.056,0,0,0-.446.892,3.707,3.707,0,0,1-.289,1.225,1.382,1.382,0,0,1-.559.748q-.3.141-.471-.641a5.085,5.085,0,0,1-.063-.754,3.145,3.145,0,0,0-.113-.88.873.873,0,0,0-.591-.54A1.026,1.026,0,0,0,63.865,20.452Zm13.053,3.777a1.677,1.677,0,0,1-1.087.842,5.664,5.664,0,0,1-1.6.226H73.2V23.179c.434,0,.823-.013,1.156-.038a1.511,1.511,0,0,0,.76-.233,2.06,2.06,0,0,1-.886-1.219,2.991,2.991,0,0,1-.013-1.6,2.523,2.523,0,0,1,.823-1.332A3.179,3.179,0,0,1,77.282,18a3.024,3.024,0,0,1,1.9.842,2.538,2.538,0,0,1,.8,1.835,3.1,3.1,0,0,1-1.043,2.212.937.937,0,0,0,.534.239,4.19,4.19,0,0,0,.7.05h.308v-.006l.019.006h.094a1.752,1.752,0,0,0,.943-.2,1.2,1.2,0,0,0,.446-.484,2.692,2.692,0,0,0,.157-1.332,6.215,6.215,0,0,1,.031-1.075.963.963,0,0,1,.465-.729.644.644,0,0,1,.735.094,1.7,1.7,0,0,1,.452,1.169c.013.119.031.239.05.352.044.245.069.478.088.7a5.009,5.009,0,0,0,.126.767.928.928,0,0,0,.321.534,1.243,1.243,0,0,0,.786.195L85.169,25.3a3,3,0,0,1-1.647-.364,1.83,1.83,0,0,1-.874-1.3,2.745,2.745,0,0,1-.83,1.163,2.081,2.081,0,0,1-1.282.49V25.3H78.859a2.232,2.232,0,0,1-1.2-.314A2.173,2.173,0,0,1,76.918,24.229ZM76.289,13.8a1.753,1.753,0,0,1,1.269.119,1.353,1.353,0,0,1,.748.855,1.284,1.284,0,0,1-.258,1.156,1.688,1.688,0,0,1-.88.566,1.582,1.582,0,0,1-1.508-.352,1.449,1.449,0,0,1-.459-1.263C75.265,14.412,75.629,14.048,76.289,13.8Zm1.357,7.3c.233-.49.226-.83-.013-1a.91.91,0,0,0-.88-.082.973.973,0,0,0-.641.779c-.063.5-.006.823.176.974a.6.6,0,0,0,.679.044A1.541,1.541,0,0,0,77.647,21.1Zm5.593-4.776a4.88,4.88,0,0,1,1.722.427c.364.207.452.408.251.622a3.237,3.237,0,0,1-1.678.459c-.478.063-1.075.132-1.785.207a18.565,18.565,0,0,1-1.923.113h-.182a1.82,1.82,0,0,1-.76-.088c-.195-.069-.289-.27-.283-.591a.946.946,0,0,1,.616-.848,3.747,3.747,0,0,1,1.345-.308,12.141,12.141,0,0,1,1.414-.031h.484a1.235,1.235,0,0,1,.371,0A2.433,2.433,0,0,0,83.24,16.323Zm1.986,6.856V25.3h.452a3.384,3.384,0,0,0,1.9-.452,2.5,2.5,0,0,0,.955-1.213,5.936,5.936,0,0,0,.346-1.722q.057-.962.038-2v-.138l-.044-3.9a1.134,1.134,0,0,0-.522-.974.891.891,0,0,0-.955-.025c-.308.176-.478.6-.5,1.269l.082,5.511a1.55,1.55,0,0,1-.5,1.219,1.607,1.607,0,0,1-1.062.3Z" transform="translate(39.018 57.78)" fill="#1A4469"/>
      <path id="Path_80" data-name="Path 80" d="M26.289,8.4a6.539,6.539,0,1,1-6.536-6.536A6.535,6.535,0,0,1,26.289,8.4" transform="translate(69.813 9.863)" fill="#1A4469"/>
      <path id="Path_81" data-name="Path 81" d="M36.541,42.659a20.1,20.1,0,0,1-4.349-.49,19.495,19.495,0,1,1,4.349.49M36.5,15.831a7.115,7.115,0,1,0,6.027,3.306A7.078,7.078,0,0,0,36.5,15.831" transform="translate(88.878 17.241)" fill="#1A4469"/>
      <path id="Path_82" data-name="Path 82" d="M21.693,42.435a19.688,19.688,0,1,1,10.514-3.054,19.7,19.7,0,0,1-10.514,3.054m-.044-26.81a7.124,7.124,0,1,0,6.033,3.306,7.105,7.105,0,0,0-6.033-3.306" transform="translate(10.452 16.17)" fill="#1A4469"/>
      <path id="Path_83" data-name="Path 83" d="M21.083,7.649H40.81v9.59H30.673A9.588,9.588,0,0,1,21.083,7.649Z" transform="translate(111.413 40.423)" fill="#1A4469"/>
      <path id="Path_84" data-name="Path 84" d="M0,17.174H17.433a9.588,9.588,0,0,0,9.59-9.59H9.59A9.588,9.588,0,0,0,0,17.174Z" transform="translate(0 40.08)" fill="#1A4469"/>
      <path id="Path_85" data-name="Path 85" d="M39.314.584h0V54.423H27.078V12.82A12.238,12.238,0,0,1,39.314.584" transform="translate(143.093 3.089)" fill="#1A4469"/>
      <path id="Path_86" data-name="Path 86" d="M36.394.584h0v41.6A12.238,12.238,0,0,1,24.158,54.423V12.82A12.238,12.238,0,0,1,36.394.584" transform="translate(127.662 3.089)" fill="#1A4469"/>
      <path id="Path_87" data-name="Path 87" d="M34.371,57.484l2.225.157A29.032,29.032,0,0,0,66.289,32.8,24.647,24.647,0,1,1,28.532,2.514,23.924,23.924,0,0,1,32.1,0a29.07,29.07,0,0,0,2.275,57.484" transform="translate(44.387 0.003)" fill="#1A4469"/>
    </g>
  </g>
</svg>
