<?xml version="1.0" standalone="no"?>
<!DOCTYPE svg PUBLIC "-//W3C//DTD SVG 20010904//EN"
 "http://www.w3.org/TR/2001/REC-SVG-20010904/DTD/svg10.dtd">
<svg version="1.0" xmlns="http://www.w3.org/2000/svg"
 width="2134.000000pt" height="2134.000000pt" viewBox="0 0 2134.000000 2134.000000"
 preserveAspectRatio="xMidYMid meet">

<g transform="translate(0.000000,2134.000000) scale(0.100000,-0.100000)"
fill="#000000" stroke="none">
<path d="M4580 21333 c-1212 -71 -2355 -591 -3198 -1457 -361 -371 -642 -767
-871 -1223 -263 -527 -417 -1058 -488 -1683 -17 -146 -18 -496 -18 -6290 0
-5864 1 -6142 18 -6300 102 -923 419 -1731 962 -2449 140 -184 239 -299 408
-470 834 -847 1910 -1347 3101 -1441 176 -14 12163 -14 12342 0 996 77 1911
439 2692 1066 811 650 1403 1575 1657 2587 68 270 113 549 135 831 14 179 14
12166 0 12342 -50 635 -208 1216 -485 1779 -474 967 -1261 1752 -2230 2224
-506 247 -1020 394 -1635 468 -136 17 -513 18 -6240 18 -3352 1 -6120 0 -6150
-2z m2820 -10623 l0 -2590 -682 2 -682 3 -53 215 c-30 118 -56 217 -59 219 -2
2 -21 -15 -41 -40 -169 -199 -381 -359 -548 -413 -216 -69 -560 -82 -813 -30
-278 56 -538 195 -750 399 -214 205 -347 424 -453 747 -103 312 -139 618 -118
998 14 242 50 434 124 654 104 313 237 530 447 732 210 202 438 321 738 385
145 31 489 34 620 5 276 -60 494 -186 699 -402 l101 -107 0 907 0 906 735 0
735 0 0 -2590z m10740 0 l0 -2590 -735 0 -735 0 0 2590 0 2590 735 0 735 0 0
-2590z m-7872 1299 c453 -49 856 -248 1124 -555 232 -266 387 -632 454 -1076
10 -67 17 -210 21 -405 l6 -303 -1233 0 -1233 0 7 -52 c16 -129 83 -259 174
-338 105 -91 319 -170 517 -190 151 -15 435 9 600 51 101 26 303 93 368 123
40 18 109 56 154 84 l82 50 220 -409 c122 -225 221 -413 221 -418 0 -5 -18
-25 -41 -46 -144 -130 -537 -311 -834 -384 -293 -72 -492 -95 -835 -95 -232 1
-297 4 -415 22 -351 55 -664 169 -911 333 -140 93 -351 302 -443 438 -158 232
-270 529 -317 841 -25 161 -25 539 -1 700 94 612 389 1071 872 1353 232 135
597 246 915 276 127 12 418 12 528 0z m4226 -14 c624 -75 1039 -301 1276 -694
85 -142 141 -301 182 -516 20 -105 21 -153 28 -1095 6 -847 9 -1000 23 -1090
23 -143 60 -267 113 -379 24 -51 44 -95 44 -97 0 -2 -346 -4 -769 -4 l-768 0
-22 68 c-26 85 -51 211 -51 263 0 21 -3 39 -6 39 -3 0 -42 -32 -87 -71 -277
-240 -547 -356 -875 -375 -277 -16 -621 52 -847 169 -408 211 -616 613 -577
1115 7 89 22 187 37 247 47 188 152 358 282 457 198 152 531 301 828 371 235
56 627 100 998 113 l207 7 0 72 c0 128 -48 234 -132 296 -50 36 -196 84 -301
98 -341 47 -842 -55 -1255 -256 -74 -36 -135 -63 -136 -61 -2 1 -78 219 -169
483 -144 420 -163 482 -149 492 25 20 247 111 386 158 301 102 674 177 1021
205 153 12 564 4 719 -15z"/>
<path d="M5167 10905 c-90 -25 -160 -67 -233 -139 -58 -58 -81 -91 -122 -176
-95 -194 -129 -366 -118 -605 18 -427 199 -726 483 -800 74 -19 233 -19 307 0
157 41 287 150 363 305 82 168 113 294 120 497 9 240 -24 417 -114 603 -38 77
-61 109 -122 170 -120 119 -228 161 -411 159 -58 0 -127 -7 -153 -14z"/>
<path d="M9813 11066 c-137 -32 -262 -127 -341 -261 -42 -72 -85 -188 -97
-262 l-7 -43 561 0 561 0 0 43 c0 62 -33 184 -70 258 -37 73 -123 167 -187
205 -112 65 -287 90 -420 60z"/>
<path d="M14355 9743 c-279 -22 -387 -44 -511 -103 -152 -73 -222 -182 -212
-329 9 -126 82 -227 206 -288 73 -35 213 -44 313 -19 144 36 270 126 327 234
l32 60 0 226 0 226 -57 -2 c-32 -1 -76 -3 -98 -5z"/>
</g>
</svg>
