<svg id="Group_10143" data-name="Group 10143" xmlns="http://www.w3.org/2000/svg" width="500" height="500" viewBox="0 0 500 500">
  <rect id="Rectangle_216" data-name="Rectangle 216" width="500" height="500" rx="96" fill="#1a4469"/>
  <g id="Group_10138" data-name="Group 10138" transform="translate(1080 -451.002)">
    <path id="Path_80" data-name="Path 80" d="M39.827,15.168a13.308,13.308,0,1,1-13.3-13.3,13.3,13.3,0,0,1,13.3,13.3" transform="translate(-860.241 662.003)" fill="#fff"/>
    <path id="Path_81" data-name="Path 81" d="M56.957,83.442a40.917,40.917,0,0,1-8.851-1,39.676,39.676,0,1,1,8.851,1m-.09-54.6a14.48,14.48,0,1,0,12.266,6.728,14.406,14.406,0,0,0-12.266-6.728" transform="translate(-817.705 678.463)" fill="#fff"/>
    <path id="Path_82" data-name="Path 82" d="M42.1,83.2A40.068,40.068,0,1,1,63.5,76.98,40.1,40.1,0,0,1,42.1,83.2m-.09-54.562a14.5,14.5,0,1,0,12.278,6.728,14.46,14.46,0,0,0-12.278-6.728" transform="translate(-992.682 676.074)" fill="#fff"/>
    <path id="Path_83" data-name="Path 83" d="M21.083,7.649H61.231V27.167H40.6A19.514,19.514,0,0,1,21.083,7.649Z" transform="translate(-767.43 730.185)" fill="#fff"/>
    <path id="Path_84" data-name="Path 84" d="M0,27.1H35.48A19.514,19.514,0,0,0,55,7.584H19.518A19.514,19.514,0,0,0,0,27.1Z" transform="translate(-1016 729.418)" fill="#fff"/>
    <path id="Path_85" data-name="Path 85" d="M51.98.584h0V110.157h-24.9V25.486A24.907,24.907,0,0,1,51.98.584" transform="translate(-696.748 646.888)" fill="#fff"/>
    <path id="Path_86" data-name="Path 86" d="M49.06.584h0v84.67a24.907,24.907,0,0,1-24.9,24.9V25.486A24.907,24.907,0,0,1,49.06.584" transform="translate(-731.175 646.888)" fill="#fff"/>
    <path id="Path_87" data-name="Path 87" d="M61.255,116.991l4.528.32a59.085,59.085,0,0,0,60.433-50.546A50.16,50.16,0,1,1,49.373,5.116,48.69,48.69,0,0,1,56.625,0a59.163,59.163,0,0,0,4.63,116.991" transform="translate(-916.97 640.002)" fill="#fff"/>
  </g>
</svg>
