<?xml version="1.0" standalone="no"?>
<!DOCTYPE svg PUBLIC "-//W3C//DTD SVG 20010904//EN"
 "http://www.w3.org/TR/2001/REC-SVG-20010904/DTD/svg10.dtd">
<svg version="1.0" xmlns="http://www.w3.org/2000/svg"
 width="67.000000pt" height="67.000000pt" viewBox="0 0 67.000000 67.000000"
 preserveAspectRatio="xMidYMid meet">

<g transform="translate(0.000000,67.000000) scale(0.100000,-0.100000)"
fill="#000000" stroke="none">
<path d="M82 653 c-18 -9 -43 -30 -55 -47 -21 -29 -22 -42 -25 -259 -3 -217
-2 -229 18 -266 41 -73 55 -76 315 -76 222 0 231 1 261 22 68 49 69 53 69 310
0 219 -1 233 -21 260 -11 15 -36 38 -54 51 -32 21 -41 22 -254 22 -183 0 -227
-3 -254 -17z m148 -312 l0 -79 -54 -1 c-46 0 -55 3 -66 24 -26 49 17 107 63
83 14 -7 17 -4 17 22 0 23 4 30 20 30 18 0 20 -7 20 -79z m330 -1 c0 -73 -2
-80 -20 -80 -18 0 -20 7 -20 80 0 73 2 80 20 80 18 0 20 -7 20 -80z m-210 20
c33 -33 26 -50 -21 -50 -24 0 -38 -4 -34 -10 3 -5 20 -10 36 -10 42 0 33 -24
-10 -28 -56 -6 -91 48 -58 90 25 32 60 35 87 8z m130 0 c13 -13 20 -33 20 -59
l0 -39 -49 0 c-75 -1 -100 48 -32 63 38 8 41 28 4 23 -33 -4 -43 19 -11 25 43
8 48 7 68 -13z"/>
<path d="M151 333 c-12 -24 2 -48 23 -40 20 8 21 31 2 46 -12 10 -17 8 -25 -6z"/>
<path d="M295 340 c-3 -5 3 -10 15 -10 12 0 18 5 15 10 -3 6 -10 10 -15 10 -5
0 -12 -4 -15 -10z"/>
<path d="M430 294 c0 -17 22 -14 28 4 2 7 -3 12 -12 12 -9 0 -16 -7 -16 -16z"/>
</g>
</svg>
