<?xml version="1.0" standalone="no"?>
<!DOCTYPE svg PUBLIC "-//W3C//DTD SVG 20010904//EN"
 "http://www.w3.org/TR/2001/REC-SVG-20010904/DTD/svg10.dtd">
<svg version="1.0" xmlns="http://www.w3.org/2000/svg"
 width="534.000000pt" height="534.000000pt" viewBox="0 0 534.000000 534.000000"
 preserveAspectRatio="xMidYMid meet">

<g transform="translate(0.000000,534.000000) scale(0.100000,-0.100000)"
fill="#000000" stroke="none">
<path d="M1090 5335 c-8 -2 -49 -9 -90 -15 -313 -51 -611 -245 -798 -521 -44
-65 -116 -212 -140 -289 -60 -182 -56 -60 -59 -1787 -4 -1760 -6 -1685 63
-1893 60 -181 158 -337 300 -476 130 -128 289 -226 462 -284 187 -62 111 -60
1837 -60 1714 0 1650 -2 1830 57 185 60 337 154 480 298 144 143 238 295 298
480 59 180 57 116 57 1830 0 1726 2 1650 -60 1837 -58 173 -156 332 -284 462
-139 141 -295 240 -475 300 -207 68 -136 66 -1856 65 -852 -1 -1557 -3 -1565
-4z m760 -2650 l0 -645 -170 0 -169 0 -10 38 c-6 20 -11 43 -11 50 0 20 -14
14 -46 -19 -16 -17 -49 -43 -74 -57 -41 -25 -54 -27 -155 -27 -101 0 -115 2
-170 29 -117 58 -198 170 -230 322 -41 193 9 410 122 522 140 139 373 148 506
18 l37 -37 0 226 0 225 185 0 185 0 0 -645z m2680 0 l0 -645 -180 0 -180 0 0
645 0 645 180 0 180 0 0 -645z m-1858 296 c111 -39 192 -111 238 -216 35 -78
47 -130 56 -242 l7 -93 -313 0 -312 0 6 -32 c8 -39 49 -84 96 -105 73 -32 240
-14 341 38 l38 19 54 -102 55 -102 -22 -17 c-34 -26 -96 -55 -171 -79 -96 -31
-292 -39 -388 -16 -186 44 -307 157 -353 330 -21 79 -18 241 6 319 66 213 260
334 515 323 54 -3 113 -13 147 -25z m1042 4 c123 -32 196 -90 245 -195 26 -54
26 -59 32 -355 5 -245 9 -308 22 -344 10 -24 17 -45 17 -47 0 -2 -85 -4 -189
-4 l-190 0 -7 45 -6 45 -37 -29 c-70 -55 -120 -74 -208 -79 -227 -12 -367 115
-350 319 10 116 52 171 171 224 86 38 167 55 299 62 l117 6 0 27 c0 74 -92
111 -226 91 -69 -10 -195 -51 -219 -71 -8 -6 -22 23 -50 103 -21 62 -40 117
-42 123 -7 21 193 83 317 98 65 8 245 -3 304 -19z"/>
<path d="M1270 2723 c-95 -49 -129 -216 -70 -338 29 -60 69 -85 137 -85 98 0
152 76 153 215 0 92 -28 169 -73 198 -41 27 -106 31 -147 10z"/>
<path d="M2440 2769 c-13 -5 -33 -18 -43 -27 -20 -18 -57 -84 -57 -102 0 -6
50 -10 140 -10 l140 0 0 28 c0 30 -27 76 -57 97 -28 19 -93 27 -123 14z"/>
<path d="M3487 2426 c-57 -21 -77 -43 -77 -88 0 -89 120 -120 192 -48 25 25
28 36 28 89 l0 61 -52 0 c-29 -1 -70 -7 -91 -14z"/>
</g>
</svg>
